
<svg width="100" height="100" viewBox="0 0 100 100" fill="none" xmlns="http://www.w3.org/2000/svg">
  <path d="M35 25C35 21.134 38.134 18 42 18C45.866 18 49 21.134 49 25C49 28.866 45.866 32 42 32V50C42 60.493 50.507 69 61 69C71.493 69 80 60.493 80 50V42C77.791 42 76 40.209 76 38V35C76 32.791 77.791 31 80 31C82.209 31 84 32.791 84 35V38C84 40.209 82.209 42 80 42V50C80 62.703 69.703 73 57 73C44.297 73 34 62.703 34 50V32C30.134 32 27 28.866 27 25C27 21.134 30.134 18 34 18C37.866 18 41 21.134 41 25C41 28.866 37.866 32 34 32" stroke="currentColor" stroke-width="2" stroke-linecap="round" stroke-linejoin="round"/>
</svg>
